<mxfile host="app.diagrams.net" modified="2024-02-22T18:23:46.507Z" agent="Mozilla/5.0 (X11; Linux x86_64; rv:122.0) Gecko/20100101 Firefox/122.0" etag="fRo4tehxpJ48yugSD6dL" version="23.1.6" type="device">
  <diagram name="Page-1" id="c9tQjiMq_hJXhwoW2cez">
    <mxGraphModel dx="880" dy="441" grid="1" gridSize="10" guides="1" tooltips="1" connect="1" arrows="1" fold="1" page="1" pageScale="1" pageWidth="827" pageHeight="1169" math="0" shadow="0">
      <root>
        <mxCell id="0" />
        <mxCell id="1" parent="0" />
        <mxCell id="eElqfsOWTKYpa6u7Z0it-10" style="edgeStyle=orthogonalEdgeStyle;rounded=0;orthogonalLoop=1;jettySize=auto;html=1;" edge="1" parent="1" source="eElqfsOWTKYpa6u7Z0it-1" target="eElqfsOWTKYpa6u7Z0it-2">
          <mxGeometry relative="1" as="geometry">
            <Array as="points">
              <mxPoint x="640" y="120" />
            </Array>
          </mxGeometry>
        </mxCell>
        <mxCell id="eElqfsOWTKYpa6u7Z0it-1" value="&lt;div&gt;Network:&lt;/div&gt;&lt;div&gt;TCP socket&lt;br&gt;&lt;/div&gt;" style="rounded=1;whiteSpace=wrap;html=1;" vertex="1" parent="1">
          <mxGeometry x="400" y="90" width="120" height="60" as="geometry" />
        </mxCell>
        <mxCell id="eElqfsOWTKYpa6u7Z0it-11" style="edgeStyle=orthogonalEdgeStyle;rounded=0;orthogonalLoop=1;jettySize=auto;html=1;" edge="1" parent="1" source="eElqfsOWTKYpa6u7Z0it-2" target="eElqfsOWTKYpa6u7Z0it-4">
          <mxGeometry relative="1" as="geometry">
            <Array as="points">
              <mxPoint x="640" y="240" />
            </Array>
          </mxGeometry>
        </mxCell>
        <mxCell id="eElqfsOWTKYpa6u7Z0it-2" value="Parsing response message" style="rounded=1;whiteSpace=wrap;html=1;" vertex="1" parent="1">
          <mxGeometry x="590" y="150" width="120" height="60" as="geometry" />
        </mxCell>
        <mxCell id="eElqfsOWTKYpa6u7Z0it-8" style="edgeStyle=orthogonalEdgeStyle;rounded=0;orthogonalLoop=1;jettySize=auto;html=1;" edge="1" parent="1" source="eElqfsOWTKYpa6u7Z0it-3" target="eElqfsOWTKYpa6u7Z0it-7">
          <mxGeometry relative="1" as="geometry" />
        </mxCell>
        <mxCell id="eElqfsOWTKYpa6u7Z0it-3" value="Brick TUI" style="rounded=1;whiteSpace=wrap;html=1;" vertex="1" parent="1">
          <mxGeometry x="230" y="210" width="120" height="60" as="geometry" />
        </mxCell>
        <mxCell id="eElqfsOWTKYpa6u7Z0it-12" style="edgeStyle=orthogonalEdgeStyle;rounded=0;orthogonalLoop=1;jettySize=auto;html=1;" edge="1" parent="1" source="eElqfsOWTKYpa6u7Z0it-4" target="eElqfsOWTKYpa6u7Z0it-3">
          <mxGeometry relative="1" as="geometry" />
        </mxCell>
        <mxCell id="eElqfsOWTKYpa6u7Z0it-4" value="Rendering data/page to TUI" style="rounded=1;whiteSpace=wrap;html=1;" vertex="1" parent="1">
          <mxGeometry x="414" y="210" width="120" height="60" as="geometry" />
        </mxCell>
        <mxCell id="eElqfsOWTKYpa6u7Z0it-13" style="edgeStyle=orthogonalEdgeStyle;rounded=0;orthogonalLoop=1;jettySize=auto;html=1;" edge="1" parent="1" source="eElqfsOWTKYpa6u7Z0it-5" target="eElqfsOWTKYpa6u7Z0it-3">
          <mxGeometry relative="1" as="geometry" />
        </mxCell>
        <mxCell id="eElqfsOWTKYpa6u7Z0it-5" value="Main" style="rounded=1;whiteSpace=wrap;html=1;" vertex="1" parent="1">
          <mxGeometry x="60" y="210" width="120" height="60" as="geometry" />
        </mxCell>
        <mxCell id="eElqfsOWTKYpa6u7Z0it-9" style="edgeStyle=orthogonalEdgeStyle;rounded=0;orthogonalLoop=1;jettySize=auto;html=1;" edge="1" parent="1" source="eElqfsOWTKYpa6u7Z0it-7" target="eElqfsOWTKYpa6u7Z0it-1">
          <mxGeometry relative="1" as="geometry" />
        </mxCell>
        <mxCell id="eElqfsOWTKYpa6u7Z0it-7" value="Request page" style="rhombus;whiteSpace=wrap;html=1;" vertex="1" parent="1">
          <mxGeometry x="250" y="80" width="80" height="80" as="geometry" />
        </mxCell>
      </root>
    </mxGraphModel>
  </diagram>
</mxfile>
